<?xml version="1.0" encoding="UTF-8"?>
<!DOCTYPE svg PUBLIC "-//W3C//DTD SVG 1.1//EN" "http://www.w3.org/Graphics/SVG/1.1/DTD/svg11.dtd">
<!-- Creator: CorelDRAW X5 -->
<svg xmlns="http://www.w3.org/2000/svg" xml:space="preserve" width="36.7306mm" height="36.7392mm" shape-rendering="geometricPrecision" text-rendering="geometricPrecision" image-rendering="optimizeQuality" fill-rule="evenodd" clip-rule="evenodd"
viewBox="0 0 147 147"
 xmlns:xlink="http://www.w3.org/1999/xlink">
 <g id="Capa_x0020_1">
  <metadata id="CorelCorpID_0Corel-Layer"/>
  <path fill="#FEFEFE" d="M147 70c-1,-39 -33,-70 -72,-70 -39,0 -70,30 -72,68 0,1 0,2 0,3 0,14 4,26 10,37l-13 38 40 -13c10,6 22,9 35,9 40,0 72,-32 72,-72 0,-1 0,-1 0,-2z"/>
  <path fill="#91437B" d="M75 132c-12,0 -24,-4 -33,-10l-23 7 8 -22c-7,-10 -12,-22 -12,-35 0,-2 0,-4 0,-6 3,-30 29,-54 60,-54 32,0 58,24 60,55 0,2 0,3 0,5 0,33 -27,60 -61,60z"/>
  <path fill="#FEFEFE" d="M108 86c-2,-1 -10,-5 -12,-6 -2,-1 -3,-1 -4,1 -1,2 -5,6 -6,7 -1,1 -2,1 -4,0 -2,-1 -7,-3 -14,-9 -5,-5 -9,-10 -10,-12 -1,-2 0,-3 1,-4 1,-1 2,-2 3,-3 0,0 0,-1 1,-1 0,-1 1,-1 1,-2 1,-1 0,-2 0,-3 0,-1 -4,-10 -5,-13 -1,-4 -3,-3 -4,-3 -1,0 -2,0 -3,0 -1,0 -3,0 -5,2 -2,2 -6,6 -6,15 0,2 0,4 1,6 2,6 6,11 6,12 1,1 12,19 30,27 18,7 18,5 21,4 3,0 10,-4 12,-8 1,-4 1,-8 1,-8 0,-1 -2,-1 -3,-2z"/>
 </g>
</svg>
