<?xml version="1.0" encoding="UTF-8"?>
<!DOCTYPE svg PUBLIC "-//W3C//DTD SVG 1.1//EN" "http://www.w3.org/Graphics/SVG/1.1/DTD/svg11.dtd">
<!-- Creator: CorelDRAW X5 -->
<svg xmlns="http://www.w3.org/2000/svg" xml:space="preserve" width="184.863mm" height="111.025mm" shape-rendering="geometricPrecision" text-rendering="geometricPrecision" image-rendering="optimizeQuality" fill-rule="evenodd" clip-rule="evenodd"
viewBox="0 0 18862 11328"
 xmlns:xlink="http://www.w3.org/1999/xlink">
 <g id="Capa_x0020_1">
  <metadata id="CorelCorpID_0Corel-Layer"/>
  <path fill="#FEFEFE" fill-rule="nonzero" d="M8412 433c198,-46 392,-87 583,-125 2428,-475 4709,-385 6463,160 1772,550 3009,1566 3326,2935 8,36 15,69 21,100 285,1455 -514,3011 -2036,4352 -1507,1327 -3727,2446 -6303,3041 -198,46 -392,87 -583,125 -2428,475 -4709,385 -6463,-160 -1772,-550 -3009,-1566 -3326,-2935 -8,-36 -15,-69 -22,-100 -285,-1455 514,-3011 2036,-4351 1507,-1327 3727,-2446 6303,-3041z"/>
  <path fill="#ED3237" fill-rule="nonzero" d="M8412 433c198,-46 392,-87 583,-125 2428,-475 4709,-385 6463,160 1772,550 3009,1566 3326,2935 8,36 15,69 21,100 285,1455 -514,3011 -2036,4352 -1507,1327 -3727,2446 -6303,3041 -198,46 -392,87 -583,125 -2428,475 -4709,385 -6463,-160 -1772,-550 -3009,-1566 -3326,-2935 -8,-36 -15,-69 -22,-100 -285,-1455 514,-3011 2036,-4351 1507,-1327 3727,-2446 6303,-3041zm621 69c-194,38 -386,79 -577,123 -2543,588 -4733,1690 -6217,2997 -1469,1294 -2243,2785 -1972,4166 7,34 13,65 20,94 299,1295 1487,2261 3192,2791 1724,535 3971,623 6367,154 194,-38 386,-79 577,-123 2543,-588 4733,-1690 6217,-2997 1469,-1294 2243,-2785 1972,-4166 -7,-34 -13,-65 -20,-94 -299,-1295 -1487,-2261 -3192,-2791 -1724,-535 -3971,-623 -6367,-154z"/>
  <path fill="#ED3237" fill-rule="nonzero" d="M7987 1342c185,-29 362,-54 531,-75 2211,-270 4254,-42 5794,560 1558,609 2605,1603 2801,2855 6,37 10,68 13,92 162,1328 -656,2676 -2110,3783 -1439,1095 -3504,1956 -5856,2325 -185,29 -362,54 -532,75 -2211,270 -4254,42 -5794,-560 -1558,-609 -2605,-1603 -2801,-2855 -6,-37 -10,-68 -13,-92 -162,-1328 656,-2676 2110,-3783 1439,-1095 3504,-1956 5856,-2325zm555 121c-181,22 -356,46 -525,73 -2318,364 -4352,1211 -5767,2287 -1399,1064 -2188,2349 -2034,3603 4,36 8,64 12,85 185,1177 1186,2118 2679,2702 1511,591 3520,814 5698,547 181,-22 356,-46 525,-73 2318,-364 4352,-1211 5767,-2287 1399,-1064 2188,-2349 2034,-3603 -4,-36 -8,-64 -12,-85 -185,-1177 -1186,-2118 -2679,-2702 -1511,-591 -3520,-814 -5699,-547z"/>
  <path fill="#ED3237" fill-rule="nonzero" d="M2954 7016l0 -3472 166 0 0 3062 616 0 0 410 -781 0zm928 -1691c0,-576 56,-1027 167,-1353 111,-326 255,-489 432,-489 115,0 219,77 312,230 93,154 163,367 212,641 49,273 73,584 73,931 0,352 -25,668 -77,945 -51,278 -124,488 -217,631 -94,143 -195,214 -304,214 -118,0 -223,-78 -315,-237 -93,-158 -163,-373 -211,-647 -48,-272 -72,-562 -72,-867zm171 7c0,419 40,748 121,989 81,241 183,361 305,361 125,0 227,-121 307,-365 80,-243 121,-589 121,-1036 0,-282 -17,-529 -52,-740 -34,-211 -85,-374 -151,-491 -66,-116 -141,-174 -223,-174 -117,0 -218,112 -302,335 -84,223 -127,597 -127,1119zm1723 1684l0 -3472 430 0c97,0 171,17 223,50 72,45 133,129 183,248 66,155 115,352 148,593 33,241 49,516 49,825 0,264 -11,497 -33,701 -22,204 -50,373 -85,506 -35,133 -72,238 -114,314 -41,77 -91,135 -149,175 -58,40 -125,59 -201,59l-451 0zm165 -410l267 0c82,0 147,-21 194,-64 47,-43 84,-103 112,-180 39,-108 70,-255 92,-439 22,-184 33,-407 33,-669 0,-363 -22,-642 -64,-837 -43,-196 -95,-326 -157,-392 -44,-48 -116,-71 -214,-71l-263 0 0 2652zm1099 410l0 -3472 904 0 0 410 -738 0 0 1063 691 0 0 407 -691 0 0 1182 767 0 0 410 -933 0zm1641 0l0 -3472 249 0 296 2458c27,229 47,400 60,514 14,-126 36,-312 67,-557l299 -2416 223 0 0 3472 -159 0 0 -2906 -363 2906 -149 0 -361 -2956 0 2956 -159 0zm1322 0l480 -3472 178 0 512 3472 -189 0 -146 -1052 -523 0 -137 1052 -176 0zm361 -1426l424 0 -131 -961c-40,-292 -69,-532 -88,-720 -16,223 -38,444 -68,664l-137 1018zm944 1426l0 -3472 554 0c111,0 196,32 254,94 58,62 104,172 139,330 35,158 52,333 52,524 0,247 -29,454 -86,622 -57,169 -146,276 -266,323 44,58 77,116 100,173 48,123 94,277 137,462l217 945 -208 0 -165 -723c-48,-208 -88,-368 -120,-478 -31,-111 -59,-188 -84,-232 -25,-44 -50,-75 -75,-93 -19,-11 -49,-16 -92,-16l-192 0 0 1542 -165 0zm165 -1939l356 0c75,0 135,-22 177,-65 43,-44 75,-113 97,-209 22,-95 33,-199 33,-311 0,-164 -21,-299 -64,-405 -43,-106 -111,-158 -203,-158l-396 0 0 1149zm1380 1939l0 -3062 -412 0 0 -410 991 0 0 410 -414 0 0 3062 -165 0zm777 0l0 -3472 165 0 0 3472 -165 0zm455 0l0 -3472 170 0 657 2726 0 -2726 159 0 0 3472 -170 0 -657 -2728 0 2728 -159 0z"/>
 </g>
</svg>
